<svg width="151" height="151" viewBox="0 0 151 151" fill="none" xmlns="http://www.w3.org/2000/svg">
<path d="M0 43C0 40.2386 2.23858 38 5 38H146C148.761 38 151 40.2386 151 43V126C151 139.807 139.807 151 126 151H25C11.1929 151 0 139.807 0 126V43Z" fill="black"/>
<path d="M105.286 115C106.232 115 107 115.768 107 116.714V116.714C107 119.081 105.081 121 102.714 121L28 121L28 115L105.286 115Z" fill="white"/>
<path d="M91.2857 92C92.2325 92 93 92.7675 93 93.7143V93.7143C93 96.0812 91.0812 98 88.7143 98L28 98L28 92L91.2857 92Z" fill="white"/>
<path d="M121.286 69C122.232 69 123 69.7675 123 70.7143V70.7143C123 73.0812 121.081 75 118.714 75L28 75L28 69L121.286 69Z" fill="white"/>
<path d="M49.5 27H55.5V33H49.5V27Z" fill="black"/>
<path d="M101 14H109V40H101V14Z" fill="black"/>
<path d="M94 26H99V37H94V26Z" fill="black"/>
<path d="M87 20H92V37H87V20Z" fill="black"/>
<path d="M95 33V38L43 38V33L95 33Z" fill="black"/>
<path d="M96 22V21.5H97V22H98.5V26.5L98 31H95L94 26V24.5H95V22H96Z" fill="black"/>
<path d="M110 26H128V40H110V26Z" fill="black"/>
<path d="M121 24H127V28H121V24Z" fill="black"/>
<path d="M116 24H119V26H116V24Z" fill="black"/>
<path d="M117 21H118V24H117V21Z" fill="black"/>
<path d="M104.5 11H105.5V14H104.5V11Z" fill="black"/>
<path d="M81.5 31H82.5V37H81.5V31Z" fill="black"/>
<path d="M85 32H87V38H85V32Z" fill="black"/>
<path d="M63 27H74V33H63V27Z" fill="black"/>
<path d="M65 27H72V26H65V27Z" fill="black"/>
<path d="M43 33L58 33V32H43V33Z" fill="black"/>
<path d="M50.5 27H55V26H50.5V27Z" fill="black"/>
<path d="M29 40.5H35L34.9999 35H29V40.5Z" fill="black"/>
<path d="M32 24H38L37.9999 14H32V24Z" fill="black"/>
<path d="M32.5 17H36.5V7H32.5V17Z" fill="black"/>
<path d="M33.5 10H34.5V0H33.5V10Z" fill="black"/>
<path d="M35 10H35.5V0H35V10Z" fill="black"/>
<path d="M31 39H39L38.9999 23H31V39Z" fill="black"/>
<path d="M19 39H27L26.9999 31H19V39Z" fill="black"/>
<path d="M2 39H19L18.9998 34H2V39Z" fill="black"/>
<path d="M1 41H18L17.9998 36H1V41Z" fill="black"/>
<path d="M6 36H17L16.9999 31H6V36Z" fill="black"/>
<path d="M9 31H16.9999L16.9999 22H9V31Z" fill="black"/>
<path d="M10.0001 24H16.5001L16.5 15H10.0001V24Z" fill="black"/>
<path d="M10.5 15L15.5 16L16 15V13.5H10.5V15Z" fill="black"/>
<path d="M11 14L16 15V14V12.5H11V14Z" fill="black"/>
<path d="M11.5 13.5L16 14.5V13.5V12H11.5V13.5Z" fill="black"/>
<path d="M12.5 13L16 14V11.5H12.5V13Z" fill="black"/>
<path d="M14.5 12.5L16 13.5V12.5V11H14.5V12.5Z" fill="black"/>
<path d="M20.5 31H25V25.5H20.5V31Z" fill="black"/>
<path d="M21 24V26H24.5V24H21Z" fill="black"/>
<path d="M22 24V23H23.5V24H22Z" fill="black"/>
<path d="M22 24V23H23.5V24H22Z" fill="black"/>
<path d="M23 23V22.5H22.5V23H23Z" fill="black"/>
<path d="M0 49H43V38H0V49Z" fill="black"/>
<path d="M71 33H78V32H71V33Z" fill="black"/>
<path d="M89.5 19H91.5V20H89.5V19Z" fill="black"/>
<path d="M111 25H116V27H111V25Z" fill="black"/>
<path d="M117 25H120V27H117V25Z" fill="black"/>
<path d="M102.5 13H108V15H103L102.5 14V13Z" fill="black"/>
<path d="M129 33H138V37H129V33Z" fill="black"/>
<path d="M130 32H137V34H130V32Z" fill="black"/>
<path d="M132 31H137V32H132V31Z" fill="black"/>
<path d="M134 29H133V31H134V29Z" fill="black"/>
<path d="M136 30H135V32H136V30Z" fill="black"/>
<path d="M131 31H130V33H131V31Z" fill="black"/>
<path d="M134 34H143V38H134V34Z" fill="black"/>
<path d="M141 29H149V37H141V29Z" fill="black"/>
<path d="M141 22H147V30H141V22Z" fill="black"/>
<path d="M142 14H143V22H142V14Z" fill="black"/>
<path d="M145 12H146V22H145V12Z" fill="black"/>
<path d="M43 37H151V49H43V37Z" fill="black"/>
</svg>
